<svg width="186" height="49" viewBox="0 0 186 49" fill="none" xmlns="http://www.w3.org/2000/svg">
<path d="M28.003 35H168C177.389 35 185 27.3888 185 18C185 8.61116 177.389 1 168 1H18C8.61116 1 1 8.61116 1 18C1 25.9786 6.49638 32.6734 13.9093 34.5046C13.7916 35.0857 13.8537 35.6986 14.0684 36.3227C14.8588 38.6205 16.3181 41.7097 17.552 44.0528C18.9603 46.7271 21.616 48 24.5 48C24.7426 48 24.9215 47.9145 24.9999 47.8722C25.0908 47.8232 25.1597 47.7694 25.2027 47.7332C25.289 47.6604 25.36 47.5815 25.4104 47.5216C25.5158 47.3965 25.6263 47.2399 25.735 47.0724C25.9566 46.7309 26.2239 46.2607 26.5028 45.7024C27.0606 44.5857 27.6933 43.059 28.1079 41.4113C28.5196 39.7752 28.7361 37.9418 28.3846 36.25C28.2956 35.8215 28.17 35.4027 28.003 35Z" fill="#E77D70" stroke="#631212" stroke-width="2"/>
</svg>
