<svg width="100" height="101" viewBox="0 0 100 101" fill="none" xmlns="http://www.w3.org/2000/svg">
<path d="M100 52.9713C100 79.0225 82.7802 100.141 61.5385 100.141C40.2967 100.141 23.0769 79.0225 23.0769 52.9713C23.0769 26.9201 40.2967 5.80149 61.5385 5.80149C82.7802 5.80149 100 26.9201 100 52.9713Z" fill="#631212"/>
<path d="M67.4764 59.012C67.4764 78.6008 52.3713 94.4807 33.7382 94.4807C15.1051 94.4807 0 78.6008 0 59.012C0 39.4231 15.1051 23.5432 33.7382 23.5432C52.3713 23.5432 67.4764 39.4231 67.4764 59.012Z" fill="#631212"/>
<path d="M76.9231 35.6099C76.9231 55.1987 61.818 71.0787 43.1849 71.0787C24.5518 71.0787 9.44669 55.1987 9.44669 35.6099C9.44669 16.021 24.5518 0.141113 43.1849 0.141113C61.818 0.141113 76.9231 16.021 76.9231 35.6099Z" fill="#631212"/>
</svg>
